<?xml version="1.0" standalone="no"?><!DOCTYPE svg PUBLIC "-//W3C//DTD SVG 1.1//EN" "http://www.w3.org/Graphics/SVG/1.1/DTD/svg11.dtd"><svg t="1667540971309" class="icon" viewBox="0 0 1024 1024" version="1.1" xmlns="http://www.w3.org/2000/svg" p-id="2548" xmlns:xlink="http://www.w3.org/1999/xlink" width="750" height="750"><path d="M748.8 864 275.2 864c-32 0-57.6-25.6-57.6-57.6L217.6 512c0-32 32-57.6 57.6-57.6l467.2 0c38.4 0 57.6 25.6 57.6 57.6l0 294.4C806.4 838.4 780.8 864 748.8 864z" p-id="2549"></path><path d="M364.8 422.4 364.8 339.2c0-70.4 51.2-121.6 121.6-121.6l51.2 0c64 0 121.6 51.2 121.6 121.6l0 83.2 57.6 0L716.8 339.2c0-102.4-83.2-179.2-179.2-179.2L486.4 160c-102.4 0-179.2 83.2-179.2 179.2l0 83.2L364.8 422.4z" p-id="2550"></path></svg>